<svg width="837" height="254" viewBox="0 0 837 254" fill="none" xmlns="http://www.w3.org/2000/svg">
<path d="M103.875 12H178.625L115.375 92.5H201.625L63.625 242L92.375 132.75H11.875L103.875 12Z" fill="black" stroke="black" stroke-width="23" stroke-linejoin="round"/>
<path d="M792.74 215.25L763.49 168L755.24 162.75L707.49 93.75H752.24L779.49 138L787.49 143L836.99 215.25H792.74ZM705.24 215.25L754.99 144.5L776.74 169L746.99 215.25H705.24ZM787.24 162.5L765.49 138L792.99 93.75H834.49L787.24 162.5Z" fill="black"/>
<path d="M628.486 218C614.32 218 601.486 214.167 589.986 206.5C578.486 198.833 569.403 188.167 562.736 174.5C556.236 160.667 552.986 144.75 552.986 126.75C552.986 108.583 556.236 92.75 562.736 79.25C569.236 65.5833 578.153 55 589.486 47.5C600.82 39.8333 613.653 36 627.986 36C642.486 36 655.403 39.8333 666.736 47.5C678.07 55 686.986 65.5833 693.486 79.25C700.153 92.9167 703.486 108.833 703.486 127C703.486 145.167 700.153 161.083 693.486 174.75C686.986 188.417 678.07 199.083 666.736 206.75C655.57 214.25 642.82 218 628.486 218ZM628.236 183.25C635.57 183.25 641.903 181.167 647.236 177C652.57 172.667 656.653 166.333 659.486 158C662.486 149.5 663.986 139.167 663.986 127C663.986 114.667 662.486 104.333 659.486 96C656.653 87.6667 652.57 81.4167 647.236 77.25C641.903 72.9167 635.486 70.75 627.986 70.75C620.82 70.75 614.486 72.8333 608.986 77C603.653 81.1667 599.57 87.4167 596.736 95.75C593.903 104.083 592.486 114.417 592.486 126.75C592.486 139.083 593.903 149.417 596.736 157.75C599.57 166.083 603.653 172.417 608.986 176.75C614.486 181.083 620.903 183.25 628.236 183.25Z" fill="black"/>
<path d="M469.482 218C455.316 218 442.482 214.167 430.982 206.5C419.482 198.833 410.399 188.167 403.732 174.5C397.232 160.667 393.982 144.75 393.982 126.75C393.982 108.583 397.232 92.75 403.732 79.25C410.232 65.5833 419.149 55 430.482 47.5C441.816 39.8333 454.649 36 468.982 36C483.482 36 496.399 39.8333 507.732 47.5C519.066 55 527.982 65.5833 534.482 79.25C541.149 92.9167 544.482 108.833 544.482 127C544.482 145.167 541.149 161.083 534.482 174.75C527.982 188.417 519.066 199.083 507.732 206.75C496.566 214.25 483.816 218 469.482 218ZM469.232 183.25C476.566 183.25 482.899 181.167 488.232 177C493.566 172.667 497.649 166.333 500.482 158C503.482 149.5 504.982 139.167 504.982 127C504.982 114.667 503.482 104.333 500.482 96C497.649 87.6667 493.566 81.4167 488.232 77.25C482.899 72.9167 476.482 70.75 468.982 70.75C461.816 70.75 455.482 72.8333 449.982 77C444.649 81.1667 440.566 87.4167 437.732 95.75C434.899 104.083 433.482 114.417 433.482 126.75C433.482 139.083 434.899 149.417 437.732 157.75C440.566 166.083 444.649 172.417 449.982 176.75C455.482 181.083 461.899 183.25 469.232 183.25Z" fill="black"/>
<path d="M338 215.25V38.75H377V215.25H338ZM304 72V38.75H374.5V72H304Z" fill="black"/>
</svg>
